<svg width="44" height="21" viewBox="0 0 44 21" fill="none" xmlns="http://www.w3.org/2000/svg">
<path d="M24.7968 19.6859C24.7968 19.6859 41.206 9.92253 42.6716 9.16845C44.1373 8.41437 43.7775 7.69667 43.4143 7.43207C43.1998 7.29978 42.3151 6.75737 40.493 5.64609C38.6708 4.53482 36.7629 5.41458 36.0366 5.99337L22.024 14.1791C17.8977 11.7647 9.19963 6.67799 7.4171 5.64609C5.79302 4.77295 4.49573 5.08384 4.05009 5.34843C3.58795 5.57995 2.31708 6.26126 0.930664 7.13441C-0.416138 7.76943 0.567558 8.6558 1.22776 9.01961C6.29476 11.9632 16.9933 18.2174 19.2511 19.6859C21.509 21.1544 23.889 20.2977 24.7968 19.6859Z" fill="#F7F7F7"/>
<path d="M21.9744 7.58425L27.9657 4.0619L21.9744 0.489944L16.0327 4.0619L21.9744 7.58425Z" fill="#F7F7F7"/>
</svg>
