<svg width="393" height="315" viewBox="0 0 393 315" fill="none" xmlns="http://www.w3.org/2000/svg">
<g filter="url(#filter0_df_438_50)">
<path fill-rule="evenodd" clip-rule="evenodd" d="M198.717 43.5813L125.624 97.7868C117.36 103.915 113.331 114.228 115.252 124.333L132.246 213.703C133.969 222.769 140.236 230.311 148.835 233.668L244.419 270.979C253.018 274.335 262.74 273.034 270.155 267.535L343.247 213.33C351.511 207.202 355.54 196.888 353.619 186.784L336.625 97.4139C334.902 88.3476 328.635 80.8057 320.036 77.4492L224.452 40.1382C215.853 36.7817 206.132 38.0823 198.717 43.5813ZM117.893 87.3673C105.631 96.461 99.6518 111.765 102.503 126.758L119.496 216.128C122.054 229.581 131.354 240.773 144.113 245.753L239.697 283.064C252.456 288.045 266.882 286.115 277.885 277.955L350.978 223.749C363.24 214.656 369.219 199.352 366.368 184.359L349.375 94.9887C346.817 81.5355 337.517 70.3443 324.758 65.3636L229.174 28.0527C216.415 23.072 201.989 25.0021 190.986 33.1618L117.893 87.3673Z" fill="#F7F7F7"/>
<path d="M198.419 43.1798L125.326 97.3853C116.909 103.628 112.804 114.134 114.761 124.426L131.754 213.796C133.51 223.032 139.894 230.714 148.653 234.133L244.237 271.444C252.996 274.863 262.899 273.538 270.452 267.937L343.545 213.732C351.963 207.489 356.067 196.983 354.11 186.691L337.117 97.3204C335.361 88.085 328.977 80.4025 320.218 76.9834L224.634 39.6725C215.875 36.2534 205.972 37.5783 198.419 43.1798ZM102.994 126.664C100.179 111.86 106.083 96.7482 118.191 87.7688L191.284 33.5633C202.148 25.5061 216.393 23.6003 228.992 28.5184L324.576 65.8293C337.175 70.7474 346.358 81.798 348.884 95.0822L365.877 184.453C368.692 199.257 362.788 214.369 350.68 223.348L277.587 277.553C266.723 285.611 252.478 287.516 239.879 282.598L144.295 245.287C131.696 240.369 122.513 229.319 119.987 216.035L102.994 126.664Z" stroke="url(#paint0_linear_438_50)"/>
</g>
<defs>
<filter id="filter0_df_438_50" x="0.80127" y="0.327637" width="391.269" height="314.461" filterUnits="userSpaceOnUse" color-interpolation-filters="sRGB">
<feFlood flood-opacity="0" result="BackgroundImageFix"/>
<feColorMatrix in="SourceAlpha" type="matrix" values="0 0 0 0 0 0 0 0 0 0 0 0 0 0 0 0 0 0 127 0" result="hardAlpha"/>
<feOffset dx="-76" dy="4"/>
<feGaussianBlur stdDeviation="12.5"/>
<feComposite in2="hardAlpha" operator="out"/>
<feColorMatrix type="matrix" values="0 0 0 0 0 0 0 0 0 0 0 0 0 0 0 0 0 0 0.35 0"/>
<feBlend mode="normal" in2="BackgroundImageFix" result="effect1_dropShadow_438_50"/>
<feBlend mode="normal" in="SourceGraphic" in2="effect1_dropShadow_438_50" result="shape"/>
<feGaussianBlur stdDeviation="12.5" result="effect2_foregroundBlur_438_50"/>
</filter>
<linearGradient id="paint0_linear_438_50" x1="172.621" y1="174.281" x2="350.606" y2="121.218" gradientUnits="userSpaceOnUse">
<stop stop-color="#307FF9" stop-opacity="0"/>
<stop offset="1" stop-color="#326ECB"/>
</linearGradient>
</defs>
</svg>
