<svg width="257" height="271" viewBox="0 0 257 271" fill="none" xmlns="http://www.w3.org/2000/svg">
<g filter="url(#filter0_df_438_51)">
<path fill-rule="evenodd" clip-rule="evenodd" d="M85.7894 106.805L63.4661 166.346C60.9423 173.077 62.2712 180.855 66.8867 186.364L107.71 235.093C111.852 240.037 118.025 242.411 124.053 241.379L191.053 229.908C197.081 228.876 202.115 224.583 204.379 218.542L226.703 159.002C229.227 152.27 227.898 144.493 223.282 138.984L182.458 90.2542C178.317 85.3108 172.144 82.9362 166.116 83.9682L99.1155 95.4394C93.0881 96.4713 88.054 100.765 85.7894 106.805ZM55.4607 162.732C51.7157 172.72 53.6876 184.261 60.5363 192.436L101.36 241.165C107.505 248.5 116.666 252.024 125.61 250.493L192.611 239.022C201.554 237.49 209.024 231.119 212.385 222.156L234.708 162.616C238.453 152.627 236.481 141.087 229.632 132.912L188.809 84.1823C182.663 76.8469 173.503 73.3232 164.559 74.8545L97.5582 86.3257C88.6143 87.857 81.1444 94.228 77.784 103.191L55.4607 162.732Z" fill="#F7F7F7"/>
<path d="M85.3212 106.63L62.998 166.17C60.4109 173.071 61.7722 181.038 66.5034 186.685L107.327 235.414C111.575 240.485 117.923 242.936 124.137 241.872L191.138 230.401C197.352 229.337 202.525 224.913 204.848 218.718L227.171 159.177C229.758 152.277 228.397 144.31 223.665 138.662L182.842 89.9331C178.594 84.8625 172.246 82.4114 166.032 83.4753L99.0313 94.9465C92.8171 96.0104 87.6441 100.434 85.3212 106.63ZM60.9196 192.115C54.1866 184.078 52.2471 172.727 55.9288 162.907L78.2521 103.366C81.5542 94.5588 88.8852 88.3179 97.6424 86.8185L164.643 75.3473C173.4 73.848 182.387 77.2952 188.425 84.5035L229.249 133.233C235.982 141.27 237.922 152.62 234.24 162.44L211.917 221.981C208.615 230.789 201.284 237.029 192.526 238.529L125.526 250C116.769 251.499 107.782 248.052 101.743 240.844L60.9196 192.115Z" stroke="url(#paint0_linear_438_51)"/>
</g>
<defs>
<filter id="filter0_df_438_51" x="0.590088" y="0.502075" width="255.989" height="270.343" filterUnits="userSpaceOnUse" color-interpolation-filters="sRGB">
<feFlood flood-opacity="0" result="BackgroundImageFix"/>
<feColorMatrix in="SourceAlpha" type="matrix" values="0 0 0 0 0 0 0 0 0 0 0 0 0 0 0 0 0 0 127 0" result="hardAlpha"/>
<feOffset dx="-28" dy="-49"/>
<feGaussianBlur stdDeviation="12.5"/>
<feComposite in2="hardAlpha" operator="out"/>
<feColorMatrix type="matrix" values="0 0 0 0 0 0 0 0 0 0 0 0 0 0 0 0 0 0 0.35 0"/>
<feBlend mode="normal" in2="BackgroundImageFix" result="effect1_dropShadow_438_51"/>
<feBlend mode="normal" in="SourceGraphic" in2="effect1_dropShadow_438_51" result="shape"/>
<feGaussianBlur stdDeviation="10" result="effect2_foregroundBlur_438_51"/>
</filter>
<linearGradient id="paint0_linear_438_51" x1="116.729" y1="196.387" x2="205.058" y2="106.083" gradientUnits="userSpaceOnUse">
<stop stop-color="#307FF9" stop-opacity="0"/>
<stop offset="1" stop-color="#326ECB"/>
</linearGradient>
</defs>
</svg>
