<svg width="165" height="481" viewBox="0 0 165 481" fill="none" xmlns="http://www.w3.org/2000/svg">
<g filter="url(#filter0_df_315_259)">
<path fill-rule="evenodd" clip-rule="evenodd" d="M300.216 72.8631L160.476 54.8133C144.677 52.7726 129.104 59.9522 120.391 73.2929L43.3293 191.292C35.5117 203.262 34.3977 218.414 40.3803 231.399L106.884 375.751C112.866 388.737 125.105 397.732 139.281 399.563L279.021 417.613C294.82 419.654 310.393 412.474 319.105 399.134L396.168 281.135C403.985 269.164 405.099 254.013 399.116 241.027L332.613 96.6756C326.631 83.6896 314.392 74.6942 300.216 72.8631ZM163.049 34.8779C139.606 31.8498 116.497 42.5033 103.569 62.2992L26.5069 180.298C14.9065 198.061 13.2535 220.543 22.131 239.813L88.6343 384.164C97.5118 403.434 115.672 416.782 136.708 419.499L276.448 437.549C299.891 440.577 323 429.923 335.928 410.127L412.99 292.128C424.59 274.366 426.243 251.883 417.366 232.614L350.863 88.2624C341.985 68.9928 323.825 55.6448 302.789 52.9277L163.049 34.8779Z" fill="#F7F7F7"/>
<path d="M300.28 72.3672L160.54 54.3173C144.551 52.2521 128.79 59.5181 119.973 73.0194L42.9108 191.018C34.999 203.133 33.8716 218.467 39.9263 231.609L106.43 375.96C112.484 389.102 124.87 398.206 139.217 400.059L278.957 418.109C294.946 420.174 310.707 412.908 319.524 399.407L396.586 281.408C404.498 269.293 405.625 253.96 399.571 240.818L333.067 96.4663C327.013 83.324 314.627 74.2203 300.28 72.3672ZM103.987 62.5726C116.811 42.9374 139.732 32.3703 162.985 35.3738L302.725 53.4236C323.59 56.1187 341.603 69.3584 350.409 88.4717L416.912 232.823C425.717 251.936 424.078 274.236 412.571 291.855L335.509 409.854C322.686 429.489 299.765 440.056 276.512 437.053L136.772 419.003C115.907 416.308 97.8939 403.068 89.0883 383.955L22.5851 239.603C13.7795 220.49 15.4192 198.19 26.9255 180.572L103.987 62.5726Z" stroke="url(#paint0_linear_315_259)"/>
</g>
<defs>
<filter id="filter0_df_315_259" x="0.473633" y="0.368896" width="482.55" height="479.689" filterUnits="userSpaceOnUse" color-interpolation-filters="sRGB">
<feFlood flood-opacity="0" result="BackgroundImageFix"/>
<feColorMatrix in="SourceAlpha" type="matrix" values="0 0 0 0 0 0 0 0 0 0 0 0 0 0 0 0 0 0 127 0" result="hardAlpha"/>
<feOffset dx="22" dy="4"/>
<feGaussianBlur stdDeviation="19"/>
<feComposite in2="hardAlpha" operator="out"/>
<feColorMatrix type="matrix" values="0 0 0 0 0 0 0 0 0 0 0 0 0 0 0 0 0 0 0.41 0"/>
<feBlend mode="normal" in2="BackgroundImageFix" result="effect1_dropShadow_315_259"/>
<feBlend mode="normal" in="SourceGraphic" in2="effect1_dropShadow_315_259" result="shape"/>
<feGaussianBlur stdDeviation="7" result="effect2_foregroundBlur_315_259"/>
</filter>
<linearGradient id="paint0_linear_315_259" x1="179" y1="408.5" x2="172.374" y2="-81.9983" gradientUnits="userSpaceOnUse">
<stop/>
<stop offset="0.960762" stop-opacity="0"/>
</linearGradient>
</defs>
</svg>
