<svg xmlns="http://www.w3.org/2000/svg" width="58" height="32" viewBox="0 0 58 32" fill="none">
  <g filter="url(#filter0_d_39_136)">
    <path d="M32.2193 24.295C32.2193 24.295 51.0898 13.0671 52.7753 12.1999C54.4608 11.3328 54.047 10.5074 53.6294 10.2031C53.3827 10.051 52.3653 9.4272 50.2699 8.14924C48.1744 6.87127 45.9802 7.88299 45.1451 8.5486L29.0305 17.9622C24.2853 15.1857 14.2825 9.33592 12.2326 8.14924C10.3649 7.14512 8.87304 7.50265 8.36056 7.80692C7.8291 8.07317 6.36759 8.85668 4.77322 9.8608C3.2244 10.5911 4.35564 11.6104 5.11487 12.0288C10.9419 15.4139 23.2452 22.6063 25.8418 24.295C28.4383 25.9837 31.1753 24.9986 32.2193 24.295Z" fill="#F7F7F7"/>
    <path d="M28.9736 10.3781L35.8635 6.32742L28.9736 2.21967L22.1405 6.32742L28.9736 10.3781Z" fill="#F7F7F7"/>
  </g>
  <defs>
    <filter id="filter0_d_39_136" x="0" y="0.219666" width="58" height="31.0078" filterUnits="userSpaceOnUse" color-interpolation-filters="sRGB">
      <feFlood flood-opacity="0" result="BackgroundImageFix"/>
      <feColorMatrix in="SourceAlpha" type="matrix" values="0 0 0 0 0 0 0 0 0 0 0 0 0 0 0 0 0 0 127 0" result="hardAlpha"/>
      <feOffset dy="2"/>
      <feGaussianBlur stdDeviation="2"/>
      <feComposite in2="hardAlpha" operator="out"/>
      <feColorMatrix type="matrix" values="0 0 0 0 0 0 0 0 0 0 0 0 0 0 0 0 0 0 0.25 0"/>
      <feBlend mode="normal" in2="BackgroundImageFix" result="effect1_dropShadow_39_136"/>
      <feBlend mode="normal" in="SourceGraphic" in2="effect1_dropShadow_39_136" result="shape"/>
    </filter>
  </defs>
</svg>